<?xml version="1.0" standalone="no"?>
<!DOCTYPE svg PUBLIC "-//W3C//DTD SVG 20010904//EN"
 "http://www.w3.org/TR/2001/REC-SVG-20010904/DTD/svg10.dtd">
<svg version="1.0" xmlns="http://www.w3.org/2000/svg"
 width="64.000000pt" height="64.000000pt" viewBox="0 0 64.000000 64.000000"
 preserveAspectRatio="xMidYMid meet">

<g transform="translate(0.000000,64.000000) scale(0.100000,-0.100000)"
fill="#000000" stroke="none">
<path d="M0 320 l0 -320 320 0 320 0 0 320 0 320 -320 0 -320 0 0 -320z m386
187 c17 -4 17 -5 -2 -6 -14 -1 -28 9 -38 27 -17 27 -17 27 2 6 10 -12 27 -24
38 -27z m64 18 c-7 -8 -20 -15 -29 -15 -11 0 -8 5 9 14 33 19 35 19 20 1z
m-195 -15 c13 -5 14 -9 5 -9 -8 0 -24 4 -35 9 -13 5 -14 9 -5 9 8 0 24 -4 35
-9z m-31 -49 c4 -5 -3 -7 -14 -4 -23 6 -26 13 -6 13 8 0 17 -4 20 -9z m230 0
c4 -5 -3 -7 -14 -4 -23 6 -26 13 -6 13 8 0 17 -4 20 -9z m-71 -38 c-5 -13 -3
-15 12 -9 11 4 16 4 12 0 -4 -4 -2 -13 4 -20 7 -8 7 -14 -1 -19 -5 -3 -10 -15
-10 -26 0 -10 -4 -19 -10 -19 -6 0 -6 9 0 26 10 26 10 26 -22 20 -43 -9 -57
-9 -92 0 -32 8 -49 -9 -40 -41 4 -15 3 -17 -4 -5 -8 13 -9 52 -2 70 1 3 2 8 1
12 0 4 6 5 14 2 8 -4 15 -1 15 5 0 6 5 11 10 11 19 0 10 -22 -12 -28 -20 -5
-19 -7 12 -15 19 -5 42 -8 50 -8 23 0 87 19 68 20 -23 1 -34 21 -17 32 19 12
19 11 12 -8z m112 -43 c8 -16 15 -37 14 -47 0 -12 -3 -9 -8 8 -5 14 -14 35
-20 47 -6 12 -9 22 -7 22 3 0 12 -13 21 -30z m-225 -30 c0 -11 -4 -20 -9 -20
-5 0 -7 9 -4 20 3 11 7 20 9 20 2 0 4 -9 4 -20z m21 -13 c-10 -9 -11 -8 -5 6
3 10 9 15 12 12 3 -3 0 -11 -7 -18z m70 0 c-10 -9 -11 -8 -5 6 3 10 9 15 12
12 3 -3 0 -11 -7 -18z m-184 -29 c-3 -7 -5 -2 -5 12 0 14 2 19 5 13 2 -7 2
-19 0 -25z m7 -44 c3 -8 2 -12 -4 -9 -6 3 -10 10 -10 16 0 14 7 11 14 -7z
m291 -15 c-32 -15 -63 -19 -157 -19 -72 0 -118 4 -118 10 0 6 28 11 63 11 34
1 91 5 127 9 36 4 79 7 95 8 30 0 29 0 -10 -19z m-214 -116 c-12 -20 -14 -14
-5 12 4 9 9 14 11 11 3 -2 0 -13 -6 -23z m194 -3 c-10 -11 -22 -20 -26 -20 -5
0 2 10 14 23 27 28 38 25 12 -3z"/>
</g>
</svg>
